ply
format ascii 1.0
comment Created by Blender 3.1.0 - www.blender.org
element vertex 386
property float x
property float y
property float z
element face 384
property list uchar uint vertex_indices
end_header
-0.431759 -0.610461 -0.431759
-0.302983 -0.664133 -0.455302
-0.316157 -0.728990 -0.316157
-0.455302 -0.664133 -0.302983
-0.156091 -0.698026 -0.474400
-0.161915 -0.768442 -0.328070
-0.000000 -0.709949 -0.481988
-0.000000 -0.781829 -0.333140
0.156091 -0.698026 -0.474400
0.161915 -0.768442 -0.328070
0.302983 -0.664133 -0.455302
0.316157 -0.728990 -0.316157
0.431759 -0.610461 -0.431759
0.455302 -0.664133 -0.302983
-0.328070 -0.768442 -0.161915
-0.474400 -0.698026 -0.156091
-0.167582 -0.810862 -0.167582
0.000000 -0.825063 -0.170115
0.167582 -0.810862 -0.167582
0.328070 -0.768442 -0.161915
0.474400 -0.698026 -0.156091
-0.333140 -0.781829 0.000000
-0.481988 -0.709949 0.000000
-0.170115 -0.825063 -0.000000
0.000000 -0.839506 -0.000000
0.170115 -0.825063 -0.000000
0.333140 -0.781829 -0.000000
0.481988 -0.709949 -0.000000
-0.328070 -0.768442 0.161915
-0.474400 -0.698026 0.156091
-0.167582 -0.810862 0.167582
0.000000 -0.825063 0.170115
0.167582 -0.810862 0.167582
0.328070 -0.768442 0.161915
0.474400 -0.698026 0.156091
-0.316157 -0.728990 0.316157
-0.455302 -0.664133 0.302983
-0.161915 -0.768442 0.328070
0.000000 -0.781829 0.333140
0.161915 -0.768442 0.328070
0.316157 -0.728990 0.316157
0.455302 -0.664133 0.302983
-0.302983 -0.664133 0.455302
-0.431759 -0.610461 0.431759
-0.156091 -0.698026 0.474400
0.000000 -0.709949 0.481988
0.156091 -0.698026 0.474400
0.302983 -0.664133 0.455302
0.431759 -0.610461 0.431759
-0.500000 -0.500000 -0.500000
-0.418850 -0.535118 -0.535118
-0.535118 -0.535118 -0.418850
-0.296650 -0.572933 -0.572933
-0.153401 -0.599636 -0.599636
-0.000000 -0.609568 -0.609568
0.153401 -0.599636 -0.599636
0.296650 -0.572933 -0.572933
0.418849 -0.535118 -0.535118
0.500000 -0.500000 -0.500000
0.535118 -0.535118 -0.418850
0.572933 -0.572933 -0.296650
0.599636 -0.599636 -0.153401
0.609568 -0.609568 -0.000000
0.599635 -0.599636 0.153401
0.572933 -0.572933 0.296650
0.535118 -0.535118 0.418849
0.500000 -0.500000 0.500000
0.418850 -0.535118 0.535118
0.296650 -0.572933 0.572933
0.153401 -0.599636 0.599636
-0.000000 -0.609568 0.609568
-0.153401 -0.599636 0.599636
-0.296650 -0.572933 0.572933
-0.418850 -0.535118 0.535118
-0.535118 -0.535118 0.418850
-0.500000 -0.500000 0.500000
-0.572933 -0.572933 0.296650
-0.599636 -0.599636 0.153401
-0.609568 -0.609568 0.000000
-0.599636 -0.599636 -0.153401
-0.572933 -0.572933 -0.296650
-0.431759 -0.431759 0.610461
-0.302983 -0.455302 0.664133
-0.316157 -0.316157 0.728990
-0.455302 -0.302983 0.664133
-0.156091 -0.474400 0.698026
-0.161915 -0.328070 0.768442
-0.000000 -0.481988 0.709949
-0.000000 -0.333140 0.781829
0.156091 -0.474400 0.698026
0.161915 -0.328070 0.768442
0.302983 -0.455302 0.664133
0.316157 -0.316157 0.728990
0.431759 -0.431759 0.610461
0.455302 -0.302983 0.664133
-0.328070 -0.161915 0.768442
-0.474400 -0.156091 0.698026
-0.167582 -0.167582 0.810862
-0.000000 -0.170115 0.825063
0.167582 -0.167582 0.810862
0.328070 -0.161915 0.768442
0.474400 -0.156091 0.698026
-0.333140 0.000000 0.781829
-0.481988 0.000000 0.709949
-0.170115 0.000000 0.825063
0.000000 0.000000 0.839506
0.170115 0.000000 0.825063
0.333140 -0.000000 0.781829
0.481988 -0.000000 0.709949
-0.328070 0.161915 0.768442
-0.474400 0.156091 0.698026
-0.167582 0.167582 0.810862
0.000000 0.170115 0.825063
0.167582 0.167582 0.810862
0.328070 0.161915 0.768442
0.474400 0.156091 0.698026
-0.316157 0.316157 0.728990
-0.455302 0.302983 0.664133
-0.161915 0.328070 0.768442
0.000000 0.333140 0.781829
0.161915 0.328070 0.768442
0.316157 0.316157 0.728990
0.455302 0.302983 0.664133
-0.302983 0.455302 0.664133
-0.431759 0.431759 0.610461
-0.156091 0.474400 0.698026
0.000000 0.481988 0.709949
0.156091 0.474400 0.698026
0.302983 0.455302 0.664133
0.431759 0.431759 0.610461
-0.535118 -0.418850 0.535118
0.535118 -0.418850 0.535118
0.572933 -0.296650 0.572933
0.599636 -0.153401 0.599636
0.609568 -0.000000 0.609568
0.599635 0.153401 0.599636
0.572933 0.296650 0.572933
0.535118 0.418849 0.535118
0.500000 0.500000 0.500000
0.418850 0.535118 0.535118
0.296650 0.572933 0.572933
0.153401 0.599636 0.599636
-0.000000 0.609568 0.609568
-0.153401 0.599636 0.599636
-0.296650 0.572933 0.572933
-0.418850 0.535118 0.535118
-0.535118 0.418850 0.535118
-0.500000 0.500000 0.500000
-0.572933 0.296650 0.572933
-0.599636 0.153401 0.599635
-0.609568 0.000000 0.609568
-0.599636 -0.153401 0.599636
-0.572933 -0.296650 0.572933
-0.431759 0.610461 0.431759
-0.302983 0.664133 0.455302
-0.316157 0.728990 0.316157
-0.455302 0.664133 0.302983
-0.156091 0.698026 0.474400
-0.161915 0.768442 0.328070
-0.000000 0.709949 0.481988
-0.000000 0.781829 0.333140
0.156091 0.698026 0.474400
0.161915 0.768442 0.328070
0.302983 0.664133 0.455302
0.316157 0.728990 0.316157
0.431759 0.610461 0.431759
0.455302 0.664133 0.302983
-0.328070 0.768442 0.161915
-0.474400 0.698026 0.156091
-0.167582 0.810862 0.167582
-0.000000 0.825063 0.170115
0.167582 0.810862 0.167582
0.328070 0.768442 0.161915
0.474400 0.698026 0.156091
-0.333140 0.781829 -0.000000
-0.481988 0.709949 -0.000000
-0.170115 0.825063 -0.000000
0.000000 0.839506 -0.000000
0.170115 0.825063 -0.000000
0.333140 0.781829 0.000000
0.481988 0.709949 0.000000
-0.328070 0.768442 -0.161916
-0.474400 0.698026 -0.156091
-0.167582 0.810862 -0.167582
0.000000 0.825063 -0.170115
0.167582 0.810862 -0.167582
0.328070 0.768442 -0.161915
0.474400 0.698026 -0.156091
-0.316157 0.728990 -0.316157
-0.455302 0.664133 -0.302983
-0.161915 0.768442 -0.328070
0.000000 0.781829 -0.333140
0.161915 0.768442 -0.328070
0.316157 0.728990 -0.316157
0.455302 0.664133 -0.302983
-0.302983 0.664133 -0.455302
-0.431759 0.610461 -0.431759
-0.156091 0.698026 -0.474400
0.000000 0.709949 -0.481988
0.156091 0.698026 -0.474400
0.302983 0.664133 -0.455302
0.431759 0.610461 -0.431759
-0.535118 0.535118 0.418850
0.535118 0.535118 0.418850
0.572933 0.572933 0.296650
0.599636 0.599636 0.153401
0.609568 0.609568 -0.000000
0.599636 0.599636 -0.153401
0.572933 0.572933 -0.296650
0.535118 0.535118 -0.418849
0.500000 0.500000 -0.500000
0.418850 0.535118 -0.535118
0.296650 0.572933 -0.572933
0.153401 0.599636 -0.599636
-0.000000 0.609568 -0.609568
-0.153401 0.599636 -0.599636
-0.296650 0.572933 -0.572933
-0.418850 0.535118 -0.535118
-0.535118 0.535118 -0.418850
-0.500000 0.500000 -0.500000
-0.572933 0.572933 -0.296650
-0.599636 0.599635 -0.153401
-0.609568 0.609568 -0.000000
-0.599636 0.599636 0.153401
-0.572933 0.572933 0.296650
-0.431759 0.431759 -0.610461
-0.302983 0.455302 -0.664133
-0.316157 0.316157 -0.728990
-0.455302 0.302983 -0.664133
-0.156091 0.474400 -0.698026
-0.161915 0.328070 -0.768442
-0.000000 0.481988 -0.709949
-0.000000 0.333140 -0.781829
0.156091 0.474400 -0.698026
0.161915 0.328070 -0.768442
0.302983 0.455302 -0.664133
0.316157 0.316157 -0.728990
0.431759 0.431759 -0.610461
0.455302 0.302983 -0.664133
-0.328070 0.161915 -0.768442
-0.474400 0.156091 -0.698026
-0.167582 0.167582 -0.810862
-0.000000 0.170115 -0.825063
0.167582 0.167582 -0.810862
0.328070 0.161915 -0.768442
0.474400 0.156091 -0.698026
-0.333140 -0.000000 -0.781829
-0.481988 -0.000000 -0.709949
-0.170115 -0.000000 -0.825063
0.000000 -0.000000 -0.839506
0.170115 -0.000000 -0.825063
0.333140 0.000000 -0.781829
0.481988 0.000000 -0.709949
-0.328070 -0.161915 -0.768442
-0.474400 -0.156091 -0.698026
-0.167582 -0.167582 -0.810862
0.000000 -0.170115 -0.825063
0.167582 -0.167582 -0.810862
0.328070 -0.161915 -0.768442
0.474400 -0.156091 -0.698026
-0.316157 -0.316157 -0.728990
-0.455302 -0.302983 -0.664133
-0.161915 -0.328070 -0.768442
0.000000 -0.333140 -0.781829
0.161915 -0.328070 -0.768442
0.316157 -0.316157 -0.728990
0.455302 -0.302983 -0.664133
-0.302983 -0.455302 -0.664133
-0.431759 -0.431759 -0.610461
-0.156091 -0.474400 -0.698026
0.000000 -0.481988 -0.709949
0.156091 -0.474400 -0.698026
0.302983 -0.455302 -0.664133
0.431759 -0.431759 -0.610461
-0.535118 0.418850 -0.535118
0.535118 0.418850 -0.535118
0.572933 0.296650 -0.572933
0.599636 0.153401 -0.599636
0.609568 -0.000000 -0.609568
0.599635 -0.153401 -0.599636
0.572933 -0.296650 -0.572933
0.535118 -0.418849 -0.535118
-0.535118 -0.418850 -0.535118
-0.572933 -0.296650 -0.572933
-0.599636 -0.153401 -0.599636
-0.609568 -0.000000 -0.609568
-0.599636 0.153401 -0.599636
-0.572933 0.296650 -0.572933
-0.610461 -0.431759 0.431759
-0.664133 -0.302983 0.455302
-0.728990 -0.316157 0.316157
-0.664133 -0.455302 0.302983
-0.698026 -0.156091 0.474400
-0.768442 -0.161915 0.328070
-0.709949 -0.000000 0.481988
-0.781829 -0.000000 0.333140
-0.698026 0.156091 0.474400
-0.768442 0.161915 0.328070
-0.664133 0.302983 0.455302
-0.728990 0.316157 0.316157
-0.610461 0.431759 0.431759
-0.664133 0.455302 0.302983
-0.768442 -0.328070 0.161915
-0.698026 -0.474400 0.156091
-0.810862 -0.167582 0.167582
-0.825063 -0.000000 0.170115
-0.810862 0.167582 0.167582
-0.768442 0.328070 0.161915
-0.698026 0.474400 0.156091
-0.781829 -0.333140 -0.000000
-0.709949 -0.481988 -0.000000
-0.825063 -0.170115 -0.000000
-0.839506 0.000000 -0.000000
-0.825063 0.170115 -0.000000
-0.781829 0.333140 0.000000
-0.709949 0.481988 -0.000000
-0.768442 -0.328070 -0.161916
-0.698026 -0.474400 -0.156091
-0.810862 -0.167582 -0.167582
-0.825063 0.000000 -0.170115
-0.810862 0.167582 -0.167582
-0.768442 0.328070 -0.161915
-0.698026 0.474400 -0.156091
-0.728990 -0.316157 -0.316157
-0.664133 -0.455302 -0.302983
-0.768442 -0.161915 -0.328070
-0.781829 0.000000 -0.333140
-0.768442 0.161915 -0.328070
-0.728990 0.316157 -0.316157
-0.664133 0.455302 -0.302983
-0.664133 -0.302983 -0.455302
-0.610461 -0.431759 -0.431759
-0.698026 -0.156091 -0.474400
-0.709949 0.000000 -0.481988
-0.698026 0.156091 -0.474400
-0.664133 0.302983 -0.455302
-0.610461 0.431759 -0.431759
0.610461 0.431759 0.431759
0.664133 0.302983 0.455302
0.728990 0.316157 0.316157
0.664133 0.455302 0.302983
0.698026 0.156091 0.474400
0.768442 0.161915 0.328070
0.709949 0.000000 0.481988
0.781829 0.000000 0.333140
0.698026 -0.156091 0.474400
0.768442 -0.161915 0.328070
0.664133 -0.302983 0.455302
0.728990 -0.316157 0.316157
0.610461 -0.431759 0.431759
0.664133 -0.455302 0.302983
0.768442 0.328070 0.161915
0.698026 0.474400 0.156091
0.810862 0.167582 0.167582
0.825063 0.000000 0.170115
0.810862 -0.167582 0.167582
0.768442 -0.328070 0.161915
0.698026 -0.474400 0.156091
0.781829 0.333140 -0.000000
0.709949 0.481988 -0.000000
0.825063 0.170115 -0.000000
0.839506 -0.000000 -0.000000
0.825063 -0.170115 -0.000000
0.781829 -0.333140 0.000000
0.709949 -0.481988 -0.000000
0.768442 0.328070 -0.161916
0.698026 0.474400 -0.156091
0.810862 0.167582 -0.167582
0.825063 -0.000000 -0.170115
0.810862 -0.167582 -0.167582
0.768442 -0.328070 -0.161916
0.698026 -0.474400 -0.156091
0.728990 0.316157 -0.316157
0.664133 0.455302 -0.302983
0.768442 0.161915 -0.328070
0.781829 -0.000000 -0.333140
0.768442 -0.161915 -0.328070
0.728990 -0.316157 -0.316157
0.664133 -0.455302 -0.302983
0.664133 0.302983 -0.455302
0.610461 0.431759 -0.431759
0.698026 0.156091 -0.474400
0.709949 -0.000000 -0.481988
0.698026 -0.156091 -0.474400
0.664133 -0.302983 -0.455302
0.610461 -0.431759 -0.431759
4 0 1 2 3
4 1 4 5 2
4 4 6 7 5
4 6 8 9 7
4 8 10 11 9
4 10 12 13 11
4 3 2 14 15
4 2 5 16 14
4 5 7 17 16
4 7 9 18 17
4 9 11 19 18
4 11 13 20 19
4 15 14 21 22
4 14 16 23 21
4 16 17 24 23
4 17 18 25 24
4 18 19 26 25
4 19 20 27 26
4 22 21 28 29
4 21 23 30 28
4 23 24 31 30
4 24 25 32 31
4 25 26 33 32
4 26 27 34 33
4 29 28 35 36
4 28 30 37 35
4 30 31 38 37
4 31 32 39 38
4 32 33 40 39
4 33 34 41 40
4 36 35 42 43
4 35 37 44 42
4 37 38 45 44
4 38 39 46 45
4 39 40 47 46
4 40 41 48 47
4 49 50 0 51
4 50 52 1 0
4 52 53 4 1
4 53 54 6 4
4 54 55 8 6
4 55 56 10 8
4 56 57 12 10
4 57 58 59 12
4 12 59 60 13
4 13 60 61 20
4 20 61 62 27
4 27 62 63 34
4 34 63 64 41
4 41 64 65 48
4 48 65 66 67
4 47 48 67 68
4 46 47 68 69
4 45 46 69 70
4 44 45 70 71
4 42 44 71 72
4 43 42 72 73
4 74 43 73 75
4 76 36 43 74
4 77 29 36 76
4 78 22 29 77
4 79 15 22 78
4 80 3 15 79
4 51 0 3 80
4 81 82 83 84
4 82 85 86 83
4 85 87 88 86
4 87 89 90 88
4 89 91 92 90
4 91 93 94 92
4 84 83 95 96
4 83 86 97 95
4 86 88 98 97
4 88 90 99 98
4 90 92 100 99
4 92 94 101 100
4 96 95 102 103
4 95 97 104 102
4 97 98 105 104
4 98 99 106 105
4 99 100 107 106
4 100 101 108 107
4 103 102 109 110
4 102 104 111 109
4 104 105 112 111
4 105 106 113 112
4 106 107 114 113
4 107 108 115 114
4 110 109 116 117
4 109 111 118 116
4 111 112 119 118
4 112 113 120 119
4 113 114 121 120
4 114 115 122 121
4 117 116 123 124
4 116 118 125 123
4 118 119 126 125
4 119 120 127 126
4 120 121 128 127
4 121 122 129 128
4 75 73 81 130
4 73 72 82 81
4 72 71 85 82
4 71 70 87 85
4 70 69 89 87
4 69 68 91 89
4 68 67 93 91
4 67 66 131 93
4 93 131 132 94
4 94 132 133 101
4 101 133 134 108
4 108 134 135 115
4 115 135 136 122
4 122 136 137 129
4 129 137 138 139
4 128 129 139 140
4 127 128 140 141
4 126 127 141 142
4 125 126 142 143
4 123 125 143 144
4 124 123 144 145
4 146 124 145 147
4 148 117 124 146
4 149 110 117 148
4 150 103 110 149
4 151 96 103 150
4 152 84 96 151
4 130 81 84 152
4 153 154 155 156
4 154 157 158 155
4 157 159 160 158
4 159 161 162 160
4 161 163 164 162
4 163 165 166 164
4 156 155 167 168
4 155 158 169 167
4 158 160 170 169
4 160 162 171 170
4 162 164 172 171
4 164 166 173 172
4 168 167 174 175
4 167 169 176 174
4 169 170 177 176
4 170 171 178 177
4 171 172 179 178
4 172 173 180 179
4 175 174 181 182
4 174 176 183 181
4 176 177 184 183
4 177 178 185 184
4 178 179 186 185
4 179 180 187 186
4 182 181 188 189
4 181 183 190 188
4 183 184 191 190
4 184 185 192 191
4 185 186 193 192
4 186 187 194 193
4 189 188 195 196
4 188 190 197 195
4 190 191 198 197
4 191 192 199 198
4 192 193 200 199
4 193 194 201 200
4 147 145 153 202
4 145 144 154 153
4 144 143 157 154
4 143 142 159 157
4 142 141 161 159
4 141 140 163 161
4 140 139 165 163
4 139 138 203 165
4 165 203 204 166
4 166 204 205 173
4 173 205 206 180
4 180 206 207 187
4 187 207 208 194
4 194 208 209 201
4 201 209 210 211
4 200 201 211 212
4 199 200 212 213
4 198 199 213 214
4 197 198 214 215
4 195 197 215 216
4 196 195 216 217
4 218 196 217 219
4 220 189 196 218
4 221 182 189 220
4 222 175 182 221
4 223 168 175 222
4 224 156 168 223
4 202 153 156 224
4 225 226 227 228
4 226 229 230 227
4 229 231 232 230
4 231 233 234 232
4 233 235 236 234
4 235 237 238 236
4 228 227 239 240
4 227 230 241 239
4 230 232 242 241
4 232 234 243 242
4 234 236 244 243
4 236 238 245 244
4 240 239 246 247
4 239 241 248 246
4 241 242 249 248
4 242 243 250 249
4 243 244 251 250
4 244 245 252 251
4 247 246 253 254
4 246 248 255 253
4 248 249 256 255
4 249 250 257 256
4 250 251 258 257
4 251 252 259 258
4 254 253 260 261
4 253 255 262 260
4 255 256 263 262
4 256 257 264 263
4 257 258 265 264
4 258 259 266 265
4 261 260 267 268
4 260 262 269 267
4 262 263 270 269
4 263 264 271 270
4 264 265 272 271
4 265 266 273 272
4 219 217 225 274
4 217 216 226 225
4 216 215 229 226
4 215 214 231 229
4 214 213 233 231
4 213 212 235 233
4 212 211 237 235
4 211 210 275 237
4 237 275 276 238
4 238 276 277 245
4 245 277 278 252
4 252 278 279 259
4 259 279 280 266
4 266 280 281 273
4 273 281 58 57
4 272 273 57 56
4 271 272 56 55
4 270 271 55 54
4 269 270 54 53
4 267 269 53 52
4 268 267 52 50
4 282 268 50 49
4 283 261 268 282
4 284 254 261 283
4 285 247 254 284
4 286 240 247 285
4 287 228 240 286
4 274 225 228 287
4 288 289 290 291
4 289 292 293 290
4 292 294 295 293
4 294 296 297 295
4 296 298 299 297
4 298 300 301 299
4 291 290 302 303
4 290 293 304 302
4 293 295 305 304
4 295 297 306 305
4 297 299 307 306
4 299 301 308 307
4 303 302 309 310
4 302 304 311 309
4 304 305 312 311
4 305 306 313 312
4 306 307 314 313
4 307 308 315 314
4 310 309 316 317
4 309 311 318 316
4 311 312 319 318
4 312 313 320 319
4 313 314 321 320
4 314 315 322 321
4 317 316 323 324
4 316 318 325 323
4 318 319 326 325
4 319 320 327 326
4 320 321 328 327
4 321 322 329 328
4 324 323 330 331
4 323 325 332 330
4 325 326 333 332
4 326 327 334 333
4 327 328 335 334
4 328 329 336 335
4 75 130 288 74
4 130 152 289 288
4 152 151 292 289
4 151 150 294 292
4 150 149 296 294
4 149 148 298 296
4 148 146 300 298
4 146 147 202 300
4 300 202 224 301
4 301 224 223 308
4 308 223 222 315
4 315 222 221 322
4 322 221 220 329
4 329 220 218 336
4 336 218 219 274
4 335 336 274 287
4 334 335 287 286
4 333 334 286 285
4 332 333 285 284
4 330 332 284 283
4 331 330 283 282
4 51 331 282 49
4 80 324 331 51
4 79 317 324 80
4 78 310 317 79
4 77 303 310 78
4 76 291 303 77
4 74 288 291 76
4 337 338 339 340
4 338 341 342 339
4 341 343 344 342
4 343 345 346 344
4 345 347 348 346
4 347 349 350 348
4 340 339 351 352
4 339 342 353 351
4 342 344 354 353
4 344 346 355 354
4 346 348 356 355
4 348 350 357 356
4 352 351 358 359
4 351 353 360 358
4 353 354 361 360
4 354 355 362 361
4 355 356 363 362
4 356 357 364 363
4 359 358 365 366
4 358 360 367 365
4 360 361 368 367
4 361 362 369 368
4 362 363 370 369
4 363 364 371 370
4 366 365 372 373
4 365 367 374 372
4 367 368 375 374
4 368 369 376 375
4 369 370 377 376
4 370 371 378 377
4 373 372 379 380
4 372 374 381 379
4 374 375 382 381
4 375 376 383 382
4 376 377 384 383
4 377 378 385 384
4 138 137 337 203
4 137 136 338 337
4 136 135 341 338
4 135 134 343 341
4 134 133 345 343
4 133 132 347 345
4 132 131 349 347
4 131 66 65 349
4 349 65 64 350
4 350 64 63 357
4 357 63 62 364
4 364 62 61 371
4 371 61 60 378
4 378 60 59 385
4 385 59 58 281
4 384 385 281 280
4 383 384 280 279
4 382 383 279 278
4 381 382 278 277
4 379 381 277 276
4 380 379 276 275
4 209 380 275 210
4 208 373 380 209
4 207 366 373 208
4 206 359 366 207
4 205 352 359 206
4 204 340 352 205
4 203 337 340 204
