ply
format ascii 1.0
comment Created by Blender 3.1.0 - www.blender.org
element vertex 728
property float x
property float y
property float z
element face 726
property list uchar uint vertex_indices
end_header
0.818182 1.000000 -0.818182
1.000000 1.000000 -0.818182
1.000000 1.000000 -1.000000
0.818182 1.000000 -1.000000
0.818182 -0.818182 -1.000000
1.000000 -0.818182 -1.000000
1.000000 -1.000000 -1.000000
0.818182 -1.000000 -1.000000
0.818182 -1.000000 0.818182
1.000000 -1.000000 0.818182
1.000000 -1.000000 1.000000
0.818182 -1.000000 1.000000
0.818182 0.818182 1.000000
1.000000 0.818182 1.000000
1.000000 1.000000 1.000000
0.818182 1.000000 1.000000
-1.000000 -0.818182 0.818182
-1.000000 -1.000000 0.818182
-1.000000 -1.000000 1.000000
-1.000000 -0.818182 1.000000
1.000000 0.818182 0.818182
1.000000 1.000000 0.818182
1.000000 -0.818182 0.818182
1.000000 -0.818182 1.000000
1.000000 -0.636364 0.818182
1.000000 -0.636364 1.000000
1.000000 -0.454545 0.818182
1.000000 -0.454545 1.000000
1.000000 -0.272727 0.818182
1.000000 -0.272727 1.000000
1.000000 -0.090909 0.818182
1.000000 -0.090909 1.000000
1.000000 0.090909 0.818182
1.000000 0.090909 1.000000
1.000000 0.272727 0.818182
1.000000 0.272727 1.000000
1.000000 0.454545 0.818182
1.000000 0.454545 1.000000
1.000000 0.636364 0.818182
1.000000 0.636364 1.000000
1.000000 -0.818182 -0.818182
1.000000 -1.000000 -0.818182
1.000000 -0.818182 -0.636364
1.000000 -1.000000 -0.636364
1.000000 -0.818182 -0.454545
1.000000 -1.000000 -0.454545
1.000000 -0.818182 -0.272727
1.000000 -1.000000 -0.272727
1.000000 -0.818182 -0.090909
1.000000 -1.000000 -0.090909
1.000000 -0.818182 0.090909
1.000000 -1.000000 0.090909
1.000000 -0.818182 0.272727
1.000000 -1.000000 0.272727
1.000000 -0.818182 0.454545
1.000000 -1.000000 0.454545
1.000000 -0.818182 0.636364
1.000000 -1.000000 0.636364
1.000000 -0.636364 -1.000000
1.000000 -0.636364 -0.818182
1.000000 -0.636364 -0.636364
1.000000 -0.636364 -0.454545
1.000000 -0.636364 -0.272727
1.000000 -0.636364 -0.090909
1.000000 -0.636364 0.090909
1.000000 -0.636364 0.272727
1.000000 -0.636364 0.454545
1.000000 -0.636364 0.636364
1.000000 -0.454545 -1.000000
1.000000 -0.454545 -0.818182
1.000000 -0.454545 -0.636364
1.000000 -0.454545 -0.454545
1.000000 -0.454545 -0.272727
1.000000 -0.454545 -0.090909
1.000000 -0.454545 0.090909
1.000000 -0.454545 0.272727
1.000000 -0.454545 0.454545
1.000000 -0.454545 0.636364
1.000000 -0.272727 -1.000000
1.000000 -0.272727 -0.818182
1.000000 -0.272727 -0.636364
1.000000 -0.272727 -0.454545
1.000000 -0.272727 -0.272727
1.000000 -0.272727 -0.090909
1.000000 -0.272727 0.090909
1.000000 -0.272727 0.272727
1.000000 -0.272727 0.454545
1.000000 -0.272727 0.636364
1.000000 -0.090909 -1.000000
1.000000 -0.090909 -0.818182
1.000000 -0.090909 -0.636364
1.000000 -0.090909 -0.454545
1.000000 -0.090909 -0.272727
1.000000 -0.090909 -0.090909
1.000000 -0.090909 0.090909
1.000000 -0.090909 0.272727
1.000000 -0.090909 0.454545
1.000000 -0.090909 0.636364
1.000000 0.090909 -1.000000
1.000000 0.090909 -0.818182
1.000000 0.090909 -0.636364
1.000000 0.090909 -0.454545
1.000000 0.090909 -0.272727
1.000000 0.090909 -0.090909
1.000000 0.090909 0.090909
1.000000 0.090909 0.272727
1.000000 0.090909 0.454545
1.000000 0.090909 0.636364
1.000000 0.272727 -1.000000
1.000000 0.272727 -0.818182
1.000000 0.272727 -0.636364
1.000000 0.272727 -0.454545
1.000000 0.272727 -0.272727
1.000000 0.272727 -0.090909
1.000000 0.272727 0.090909
1.000000 0.272727 0.272727
1.000000 0.272727 0.454545
1.000000 0.272727 0.636364
1.000000 0.454545 -1.000000
1.000000 0.454545 -0.818182
1.000000 0.454545 -0.636364
1.000000 0.454545 -0.454545
1.000000 0.454545 -0.272727
1.000000 0.454545 -0.090909
1.000000 0.454545 0.090909
1.000000 0.454545 0.272727
1.000000 0.454545 0.454545
1.000000 0.454545 0.636364
1.000000 0.636364 -1.000000
1.000000 0.636364 -0.818182
1.000000 0.636364 -0.636364
1.000000 0.636364 -0.454545
1.000000 0.636364 -0.272727
1.000000 0.636364 -0.090909
1.000000 0.636364 0.090909
1.000000 0.636364 0.272727
1.000000 0.636364 0.454545
1.000000 0.636364 0.636364
1.000000 0.818182 -1.000000
1.000000 0.818182 -0.818182
1.000000 0.818182 -0.636364
1.000000 0.818182 -0.454545
1.000000 0.818182 -0.272727
1.000000 0.818182 -0.090909
1.000000 0.818182 0.090909
1.000000 0.818182 0.272727
1.000000 0.818182 0.454545
1.000000 0.818182 0.636364
1.000000 1.000000 -0.636364
1.000000 1.000000 -0.454545
1.000000 1.000000 -0.272727
1.000000 1.000000 -0.090909
1.000000 1.000000 0.090909
1.000000 1.000000 0.272727
1.000000 1.000000 0.454545
1.000000 1.000000 0.636364
-1.000000 1.000000 0.818182
-1.000000 0.818182 0.818182
-1.000000 0.818182 1.000000
-1.000000 1.000000 1.000000
-1.000000 0.636364 0.818182
-1.000000 0.636364 1.000000
-1.000000 0.454545 0.818182
-1.000000 0.454545 1.000000
-1.000000 0.272727 0.818182
-1.000000 0.272727 1.000000
-1.000000 0.090909 0.818182
-1.000000 0.090909 1.000000
-1.000000 -0.090909 0.818182
-1.000000 -0.090909 1.000000
-1.000000 -0.272727 0.818182
-1.000000 -0.272727 1.000000
-1.000000 -0.454545 0.818182
-1.000000 -0.454545 1.000000
-1.000000 -0.636364 0.818182
-1.000000 -0.636364 1.000000
-1.000000 1.000000 -1.000000
-1.000000 0.818182 -1.000000
-1.000000 0.818182 -0.818182
-1.000000 1.000000 -0.818182
-1.000000 0.818182 -0.636364
-1.000000 1.000000 -0.636364
-1.000000 0.818182 -0.454545
-1.000000 1.000000 -0.454545
-1.000000 0.818182 -0.272727
-1.000000 1.000000 -0.272727
-1.000000 0.818182 -0.090909
-1.000000 1.000000 -0.090909
-1.000000 0.818182 0.090909
-1.000000 1.000000 0.090909
-1.000000 0.818182 0.272727
-1.000000 1.000000 0.272727
-1.000000 0.818182 0.454545
-1.000000 1.000000 0.454545
-1.000000 0.818182 0.636364
-1.000000 1.000000 0.636364
-1.000000 0.636364 -1.000000
-1.000000 0.636364 -0.818182
-1.000000 0.636364 -0.636364
-1.000000 0.636364 -0.454545
-1.000000 0.636364 -0.272727
-1.000000 0.636364 -0.090909
-1.000000 0.636364 0.090909
-1.000000 0.636364 0.272727
-1.000000 0.636364 0.454545
-1.000000 0.636364 0.636364
-1.000000 0.454545 -1.000000
-1.000000 0.454545 -0.818182
-1.000000 0.454545 -0.636364
-1.000000 0.454545 -0.454545
-1.000000 0.454545 -0.272727
-1.000000 0.454545 -0.090909
-1.000000 0.454545 0.090909
-1.000000 0.454545 0.272727
-1.000000 0.454545 0.454545
-1.000000 0.454545 0.636364
-1.000000 0.272727 -1.000000
-1.000000 0.272727 -0.818182
-1.000000 0.272727 -0.636364
-1.000000 0.272727 -0.454545
-1.000000 0.272727 -0.272727
-1.000000 0.272727 -0.090909
-1.000000 0.272727 0.090909
-1.000000 0.272727 0.272727
-1.000000 0.272727 0.454545
-1.000000 0.272727 0.636364
-1.000000 0.090909 -1.000000
-1.000000 0.090909 -0.818182
-1.000000 0.090909 -0.636364
-1.000000 0.090909 -0.454545
-1.000000 0.090909 -0.272727
-1.000000 0.090909 -0.090909
-1.000000 0.090909 0.090909
-1.000000 0.090909 0.272727
-1.000000 0.090909 0.454545
-1.000000 0.090909 0.636364
-1.000000 -0.090909 -1.000000
-1.000000 -0.090909 -0.818182
-1.000000 -0.090909 -0.636364
-1.000000 -0.090909 -0.454545
-1.000000 -0.090909 -0.272727
-1.000000 -0.090909 -0.090909
-1.000000 -0.090909 0.090909
-1.000000 -0.090909 0.272727
-1.000000 -0.090909 0.454545
-1.000000 -0.090909 0.636364
-1.000000 -0.272727 -1.000000
-1.000000 -0.272727 -0.818182
-1.000000 -0.272727 -0.636364
-1.000000 -0.272727 -0.454545
-1.000000 -0.272727 -0.272727
-1.000000 -0.272727 -0.090909
-1.000000 -0.272727 0.090909
-1.000000 -0.272727 0.272727
-1.000000 -0.272727 0.454545
-1.000000 -0.272727 0.636364
-1.000000 -0.454545 -1.000000
-1.000000 -0.454545 -0.818182
-1.000000 -0.454545 -0.636364
-1.000000 -0.454545 -0.454545
-1.000000 -0.454545 -0.272727
-1.000000 -0.454545 -0.090909
-1.000000 -0.454545 0.090909
-1.000000 -0.454545 0.272727
-1.000000 -0.454545 0.454545
-1.000000 -0.454545 0.636364
-1.000000 -0.636364 -1.000000
-1.000000 -0.636364 -0.818182
-1.000000 -0.636364 -0.636364
-1.000000 -0.636364 -0.454545
-1.000000 -0.636364 -0.272727
-1.000000 -0.636364 -0.090909
-1.000000 -0.636364 0.090909
-1.000000 -0.636364 0.272727
-1.000000 -0.636364 0.454545
-1.000000 -0.636364 0.636364
-1.000000 -0.818182 -1.000000
-1.000000 -0.818182 -0.818182
-1.000000 -0.818182 -0.636364
-1.000000 -0.818182 -0.454545
-1.000000 -0.818182 -0.272727
-1.000000 -0.818182 -0.090909
-1.000000 -0.818182 0.090909
-1.000000 -0.818182 0.272727
-1.000000 -0.818182 0.454545
-1.000000 -0.818182 0.636364
-1.000000 -1.000000 -1.000000
-1.000000 -1.000000 -0.818182
-1.000000 -1.000000 -0.636364
-1.000000 -1.000000 -0.454545
-1.000000 -1.000000 -0.272727
-1.000000 -1.000000 -0.090909
-1.000000 -1.000000 0.090909
-1.000000 -1.000000 0.272727
-1.000000 -1.000000 0.454545
-1.000000 -1.000000 0.636364
-0.818182 0.818182 1.000000
-0.818182 1.000000 1.000000
-0.636364 0.818182 1.000000
-0.636364 1.000000 1.000000
-0.454545 0.818182 1.000000
-0.454545 1.000000 1.000000
-0.272727 0.818182 1.000000
-0.272727 1.000000 1.000000
-0.090909 0.818182 1.000000
-0.090909 1.000000 1.000000
0.090909 0.818182 1.000000
0.090909 1.000000 1.000000
0.272727 0.818182 1.000000
0.272727 1.000000 1.000000
0.454545 0.818182 1.000000
0.454545 1.000000 1.000000
0.636364 0.818182 1.000000
0.636364 1.000000 1.000000
-0.818182 -1.000000 1.000000
-0.818182 -0.818182 1.000000
-0.818182 -0.636364 1.000000
-0.818182 -0.454545 1.000000
-0.818182 -0.272727 1.000000
-0.818182 -0.090909 1.000000
-0.818182 0.090909 1.000000
-0.818182 0.272727 1.000000
-0.818182 0.454545 1.000000
-0.818182 0.636364 1.000000
-0.636364 -1.000000 1.000000
-0.636364 -0.818182 1.000000
-0.636364 -0.636364 1.000000
-0.636364 -0.454545 1.000000
-0.636364 -0.272727 1.000000
-0.636364 -0.090909 1.000000
-0.636364 0.090909 1.000000
-0.636364 0.272727 1.000000
-0.636364 0.454545 1.000000
-0.636364 0.636364 1.000000
-0.454545 -1.000000 1.000000
-0.454545 -0.818182 1.000000
-0.454545 -0.636364 1.000000
-0.454545 -0.454545 1.000000
-0.454545 -0.272727 1.000000
-0.454545 -0.090909 1.000000
-0.454545 0.090909 1.000000
-0.454545 0.272727 1.000000
-0.454545 0.454545 1.000000
-0.454545 0.636364 1.000000
-0.272727 -1.000000 1.000000
-0.272727 -0.818182 1.000000
-0.272727 -0.636364 1.000000
-0.272727 -0.454545 1.000000
-0.272727 -0.272727 1.000000
-0.272727 -0.090909 1.000000
-0.272727 0.090909 1.000000
-0.272727 0.272727 1.000000
-0.272727 0.454545 1.000000
-0.272727 0.636364 1.000000
-0.090909 -1.000000 1.000000
-0.090909 -0.818182 1.000000
-0.090909 -0.636364 1.000000
-0.090909 -0.454545 1.000000
-0.090909 -0.272727 1.000000
-0.090909 -0.090909 1.000000
-0.090909 0.090909 1.000000
-0.090909 0.272727 1.000000
-0.090909 0.454545 1.000000
-0.090909 0.636364 1.000000
0.090909 -1.000000 1.000000
0.090909 -0.818182 1.000000
0.090909 -0.636364 1.000000
0.090909 -0.454545 1.000000
0.090909 -0.272727 1.000000
0.090909 -0.090909 1.000000
0.090909 0.090909 1.000000
0.090909 0.272727 1.000000
0.090909 0.454545 1.000000
0.090909 0.636364 1.000000
0.272727 -1.000000 1.000000
0.272727 -0.818182 1.000000
0.272727 -0.636364 1.000000
0.272727 -0.454545 1.000000
0.272727 -0.272727 1.000000
0.272727 -0.090909 1.000000
0.272727 0.090909 1.000000
0.272727 0.272727 1.000000
0.272727 0.454545 1.000000
0.272727 0.636364 1.000000
0.454545 -1.000000 1.000000
0.454545 -0.818182 1.000000
0.454545 -0.636364 1.000000
0.454545 -0.454545 1.000000
0.454545 -0.272727 1.000000
0.454545 -0.090909 1.000000
0.454545 0.090909 1.000000
0.454545 0.272727 1.000000
0.454545 0.454545 1.000000
0.454545 0.636364 1.000000
0.636364 -1.000000 1.000000
0.636364 -0.818182 1.000000
0.636364 -0.636364 1.000000
0.636364 -0.454545 1.000000
0.636364 -0.272727 1.000000
0.636364 -0.090909 1.000000
0.636364 0.090909 1.000000
0.636364 0.272727 1.000000
0.636364 0.454545 1.000000
0.636364 0.636364 1.000000
0.818182 -0.818182 1.000000
0.818182 -0.636364 1.000000
0.818182 -0.454545 1.000000
0.818182 -0.272727 1.000000
0.818182 -0.090909 1.000000
0.818182 0.090909 1.000000
0.818182 0.272727 1.000000
0.818182 0.454545 1.000000
0.818182 0.636364 1.000000
-0.818182 -1.000000 0.818182
-0.636364 -1.000000 0.818182
-0.454545 -1.000000 0.818182
-0.272727 -1.000000 0.818182
-0.090909 -1.000000 0.818182
0.090909 -1.000000 0.818182
0.272727 -1.000000 0.818182
0.454545 -1.000000 0.818182
0.636364 -1.000000 0.818182
-0.818182 -1.000000 -1.000000
-0.818182 -1.000000 -0.818182
-0.818182 -1.000000 -0.636364
-0.818182 -1.000000 -0.454545
-0.818182 -1.000000 -0.272727
-0.818182 -1.000000 -0.090909
-0.818182 -1.000000 0.090909
-0.818182 -1.000000 0.272727
-0.818182 -1.000000 0.454545
-0.818182 -1.000000 0.636364
-0.636364 -1.000000 -1.000000
-0.636364 -1.000000 -0.818182
-0.636364 -1.000000 -0.636364
-0.636364 -1.000000 -0.454545
-0.636364 -1.000000 -0.272727
-0.636364 -1.000000 -0.090909
-0.636364 -1.000000 0.090909
-0.636364 -1.000000 0.272727
-0.636364 -1.000000 0.454545
-0.636364 -1.000000 0.636364
-0.454545 -1.000000 -1.000000
-0.454545 -1.000000 -0.818182
-0.454545 -1.000000 -0.636364
-0.454545 -1.000000 -0.454545
-0.454545 -1.000000 -0.272727
-0.454545 -1.000000 -0.090909
-0.454545 -1.000000 0.090909
-0.454545 -1.000000 0.272727
-0.454545 -1.000000 0.454545
-0.454545 -1.000000 0.636364
-0.272727 -1.000000 -1.000000
-0.272727 -1.000000 -0.818182
-0.272727 -1.000000 -0.636364
-0.272727 -1.000000 -0.454545
-0.272727 -1.000000 -0.272727
-0.272727 -1.000000 -0.090909
-0.272727 -1.000000 0.090909
-0.272727 -1.000000 0.272727
-0.272727 -1.000000 0.454545
-0.272727 -1.000000 0.636364
-0.090909 -1.000000 -1.000000
-0.090909 -1.000000 -0.818182
-0.090909 -1.000000 -0.636364
-0.090909 -1.000000 -0.454545
-0.090909 -1.000000 -0.272727
-0.090909 -1.000000 -0.090909
-0.090909 -1.000000 0.090909
-0.090909 -1.000000 0.272727
-0.090909 -1.000000 0.454545
-0.090909 -1.000000 0.636364
0.090909 -1.000000 -1.000000
0.090909 -1.000000 -0.818182
0.090909 -1.000000 -0.636364
0.090909 -1.000000 -0.454545
0.090909 -1.000000 -0.272727
0.090909 -1.000000 -0.090909
0.090909 -1.000000 0.090909
0.090909 -1.000000 0.272727
0.090909 -1.000000 0.454545
0.090909 -1.000000 0.636364
0.272727 -1.000000 -1.000000
0.272727 -1.000000 -0.818182
0.272727 -1.000000 -0.636364
0.272727 -1.000000 -0.454545
0.272727 -1.000000 -0.272727
0.272727 -1.000000 -0.090909
0.272727 -1.000000 0.090909
0.272727 -1.000000 0.272727
0.272727 -1.000000 0.454545
0.272727 -1.000000 0.636364
0.454545 -1.000000 -1.000000
0.454545 -1.000000 -0.818182
0.454545 -1.000000 -0.636364
0.454545 -1.000000 -0.454545
0.454545 -1.000000 -0.272727
0.454545 -1.000000 -0.090909
0.454545 -1.000000 0.090909
0.454545 -1.000000 0.272727
0.454545 -1.000000 0.454545
0.454545 -1.000000 0.636364
0.636364 -1.000000 -1.000000
0.636364 -1.000000 -0.818182
0.636364 -1.000000 -0.636364
0.636364 -1.000000 -0.454545
0.636364 -1.000000 -0.272727
0.636364 -1.000000 -0.090909
0.636364 -1.000000 0.090909
0.636364 -1.000000 0.272727
0.636364 -1.000000 0.454545
0.636364 -1.000000 0.636364
0.818182 -1.000000 -0.818182
0.818182 -1.000000 -0.636364
0.818182 -1.000000 -0.454545
0.818182 -1.000000 -0.272727
0.818182 -1.000000 -0.090909
0.818182 -1.000000 0.090909
0.818182 -1.000000 0.272727
0.818182 -1.000000 0.454545
0.818182 -1.000000 0.636364
-0.818182 -0.818182 -1.000000
-0.636364 -0.818182 -1.000000
-0.454545 -0.818182 -1.000000
-0.272727 -0.818182 -1.000000
-0.090909 -0.818182 -1.000000
0.090909 -0.818182 -1.000000
0.272727 -0.818182 -1.000000
0.454545 -0.818182 -1.000000
0.636364 -0.818182 -1.000000
-0.818182 1.000000 -1.000000
-0.818182 0.818182 -1.000000
-0.818182 0.636364 -1.000000
-0.818182 0.454545 -1.000000
-0.818182 0.272727 -1.000000
-0.818182 0.090909 -1.000000
-0.818182 -0.090909 -1.000000
-0.818182 -0.272727 -1.000000
-0.818182 -0.454545 -1.000000
-0.818182 -0.636364 -1.000000
-0.636364 1.000000 -1.000000
-0.636364 0.818182 -1.000000
-0.636364 0.636364 -1.000000
-0.636364 0.454545 -1.000000
-0.636364 0.272727 -1.000000
-0.636364 0.090909 -1.000000
-0.636364 -0.090909 -1.000000
-0.636364 -0.272727 -1.000000
-0.636364 -0.454545 -1.000000
-0.636364 -0.636364 -1.000000
-0.454545 1.000000 -1.000000
-0.454545 0.818182 -1.000000
-0.454545 0.636364 -1.000000
-0.454545 0.454545 -1.000000
-0.454545 0.272727 -1.000000
-0.454545 0.090909 -1.000000
-0.454545 -0.090909 -1.000000
-0.454545 -0.272727 -1.000000
-0.454545 -0.454545 -1.000000
-0.454545 -0.636364 -1.000000
-0.272727 1.000000 -1.000000
-0.272727 0.818182 -1.000000
-0.272727 0.636364 -1.000000
-0.272727 0.454545 -1.000000
-0.272727 0.272727 -1.000000
-0.272727 0.090909 -1.000000
-0.272727 -0.090909 -1.000000
-0.272727 -0.272727 -1.000000
-0.272727 -0.454545 -1.000000
-0.272727 -0.636364 -1.000000
-0.090909 1.000000 -1.000000
-0.090909 0.818182 -1.000000
-0.090909 0.636364 -1.000000
-0.090909 0.454545 -1.000000
-0.090909 0.272727 -1.000000
-0.090909 0.090909 -1.000000
-0.090909 -0.090909 -1.000000
-0.090909 -0.272727 -1.000000
-0.090909 -0.454545 -1.000000
-0.090909 -0.636364 -1.000000
0.090909 1.000000 -1.000000
0.090909 0.818182 -1.000000
0.090909 0.636364 -1.000000
0.090909 0.454545 -1.000000
0.090909 0.272727 -1.000000
0.090909 0.090909 -1.000000
0.090909 -0.090909 -1.000000
0.090909 -0.272727 -1.000000
0.090909 -0.454545 -1.000000
0.090909 -0.636364 -1.000000
0.272727 1.000000 -1.000000
0.272727 0.818182 -1.000000
0.272727 0.636364 -1.000000
0.272727 0.454545 -1.000000
0.272727 0.272727 -1.000000
0.272727 0.090909 -1.000000
0.272727 -0.090909 -1.000000
0.272727 -0.272727 -1.000000
0.272727 -0.454545 -1.000000
0.272727 -0.636364 -1.000000
0.454545 1.000000 -1.000000
0.454545 0.818182 -1.000000
0.454545 0.636364 -1.000000
0.454545 0.454545 -1.000000
0.454545 0.272727 -1.000000
0.454545 0.090909 -1.000000
0.454545 -0.090909 -1.000000
0.454545 -0.272727 -1.000000
0.454545 -0.454545 -1.000000
0.454545 -0.636364 -1.000000
0.636364 1.000000 -1.000000
0.636364 0.818182 -1.000000
0.636364 0.636364 -1.000000
0.636364 0.454545 -1.000000
0.636364 0.272727 -1.000000
0.636364 0.090909 -1.000000
0.636364 -0.090909 -1.000000
0.636364 -0.272727 -1.000000
0.636364 -0.454545 -1.000000
0.636364 -0.636364 -1.000000
0.818182 0.818182 -1.000000
0.818182 0.636364 -1.000000
0.818182 0.454545 -1.000000
0.818182 0.272727 -1.000000
0.818182 0.090909 -1.000000
0.818182 -0.090909 -1.000000
0.818182 -0.272727 -1.000000
0.818182 -0.454545 -1.000000
0.818182 -0.636364 -1.000000
-0.818182 1.000000 -0.818182
-0.636364 1.000000 -0.818182
-0.454545 1.000000 -0.818182
-0.272727 1.000000 -0.818182
-0.090909 1.000000 -0.818182
0.090909 1.000000 -0.818182
0.272727 1.000000 -0.818182
0.454545 1.000000 -0.818182
0.636364 1.000000 -0.818182
-0.818182 1.000000 0.818182
-0.818182 1.000000 0.636364
-0.818182 1.000000 0.454545
-0.818182 1.000000 0.272727
-0.818182 1.000000 0.090909
-0.818182 1.000000 -0.090909
-0.818182 1.000000 -0.272727
-0.818182 1.000000 -0.454545
-0.818182 1.000000 -0.636364
-0.636364 1.000000 0.818182
-0.636364 1.000000 0.636364
-0.636364 1.000000 0.454545
-0.636364 1.000000 0.272727
-0.636364 1.000000 0.090909
-0.636364 1.000000 -0.090909
-0.636364 1.000000 -0.272727
-0.636364 1.000000 -0.454545
-0.636364 1.000000 -0.636364
-0.454545 1.000000 0.818182
-0.454545 1.000000 0.636364
-0.454545 1.000000 0.454545
-0.454545 1.000000 0.272727
-0.454545 1.000000 0.090909
-0.454545 1.000000 -0.090909
-0.454545 1.000000 -0.272727
-0.454545 1.000000 -0.454545
-0.454545 1.000000 -0.636364
-0.272727 1.000000 0.818182
-0.272727 1.000000 0.636364
-0.272727 1.000000 0.454545
-0.272727 1.000000 0.272727
-0.272727 1.000000 0.090909
-0.272727 1.000000 -0.090909
-0.272727 1.000000 -0.272727
-0.272727 1.000000 -0.454545
-0.272727 1.000000 -0.636364
-0.090909 1.000000 0.818182
-0.090909 1.000000 0.636364
-0.090909 1.000000 0.454545
-0.090909 1.000000 0.272727
-0.090909 1.000000 0.090909
-0.090909 1.000000 -0.090909
-0.090909 1.000000 -0.272727
-0.090909 1.000000 -0.454545
-0.090909 1.000000 -0.636364
0.090909 1.000000 0.818182
0.090909 1.000000 0.636364
0.090909 1.000000 0.454545
0.090909 1.000000 0.272727
0.090909 1.000000 0.090909
0.090909 1.000000 -0.090909
0.090909 1.000000 -0.272727
0.090909 1.000000 -0.454545
0.090909 1.000000 -0.636364
0.272727 1.000000 0.818182
0.272727 1.000000 0.636364
0.272727 1.000000 0.454545
0.272727 1.000000 0.272727
0.272727 1.000000 0.090909
0.272727 1.000000 -0.090909
0.272727 1.000000 -0.272727
0.272727 1.000000 -0.454545
0.272727 1.000000 -0.636364
0.454545 1.000000 0.818182
0.454545 1.000000 0.636364
0.454545 1.000000 0.454545
0.454545 1.000000 0.272727
0.454545 1.000000 0.090909
0.454545 1.000000 -0.090909
0.454545 1.000000 -0.272727
0.454545 1.000000 -0.454545
0.454545 1.000000 -0.636364
0.636364 1.000000 0.818182
0.636364 1.000000 0.636364
0.636364 1.000000 0.454545
0.636364 1.000000 0.272727
0.636364 1.000000 0.090909
0.636364 1.000000 -0.090909
0.636364 1.000000 -0.272727
0.636364 1.000000 -0.454545
0.636364 1.000000 -0.636364
0.818182 1.000000 0.818182
0.818182 1.000000 0.636364
0.818182 1.000000 0.454545
0.818182 1.000000 0.272727
0.818182 1.000000 0.090909
0.818182 1.000000 -0.090909
0.818182 1.000000 -0.272727
0.818182 1.000000 -0.454545
0.818182 1.000000 -0.636364
4 0 1 2 3
4 4 5 6 7
4 8 9 10 11
4 12 13 14 15
4 16 17 18 19
4 20 21 14 13
4 9 22 23 10
4 22 24 25 23
4 24 26 27 25
4 26 28 29 27
4 28 30 31 29
4 30 32 33 31
4 32 34 35 33
4 34 36 37 35
4 36 38 39 37
4 38 20 13 39
4 6 5 40 41
4 41 40 42 43
4 43 42 44 45
4 45 44 46 47
4 47 46 48 49
4 49 48 50 51
4 51 50 52 53
4 53 52 54 55
4 55 54 56 57
4 57 56 22 9
4 5 58 59 40
4 40 59 60 42
4 42 60 61 44
4 44 61 62 46
4 46 62 63 48
4 48 63 64 50
4 50 64 65 52
4 52 65 66 54
4 54 66 67 56
4 56 67 24 22
4 58 68 69 59
4 59 69 70 60
4 60 70 71 61
4 61 71 72 62
4 62 72 73 63
4 63 73 74 64
4 64 74 75 65
4 65 75 76 66
4 66 76 77 67
4 67 77 26 24
4 68 78 79 69
4 69 79 80 70
4 70 80 81 71
4 71 81 82 72
4 72 82 83 73
4 73 83 84 74
4 74 84 85 75
4 75 85 86 76
4 76 86 87 77
4 77 87 28 26
4 78 88 89 79
4 79 89 90 80
4 80 90 91 81
4 81 91 92 82
4 82 92 93 83
4 83 93 94 84
4 84 94 95 85
4 85 95 96 86
4 86 96 97 87
4 87 97 30 28
4 88 98 99 89
4 89 99 100 90
4 90 100 101 91
4 91 101 102 92
4 92 102 103 93
4 93 103 104 94
4 94 104 105 95
4 95 105 106 96
4 96 106 107 97
4 97 107 32 30
4 98 108 109 99
4 99 109 110 100
4 100 110 111 101
4 101 111 112 102
4 102 112 113 103
4 103 113 114 104
4 104 114 115 105
4 105 115 116 106
4 106 116 117 107
4 107 117 34 32
4 108 118 119 109
4 109 119 120 110
4 110 120 121 111
4 111 121 122 112
4 112 122 123 113
4 113 123 124 114
4 114 124 125 115
4 115 125 126 116
4 116 126 127 117
4 117 127 36 34
4 118 128 129 119
4 119 129 130 120
4 120 130 131 121
4 121 131 132 122
4 122 132 133 123
4 123 133 134 124
4 124 134 135 125
4 125 135 136 126
4 126 136 137 127
4 127 137 38 36
4 128 138 139 129
4 129 139 140 130
4 130 140 141 131
4 131 141 142 132
4 132 142 143 133
4 133 143 144 134
4 134 144 145 135
4 135 145 146 136
4 136 146 147 137
4 137 147 20 38
4 138 2 1 139
4 139 1 148 140
4 140 148 149 141
4 141 149 150 142
4 142 150 151 143
4 143 151 152 144
4 144 152 153 145
4 145 153 154 146
4 146 154 155 147
4 147 155 21 20
4 156 157 158 159
4 157 160 161 158
4 160 162 163 161
4 162 164 165 163
4 164 166 167 165
4 166 168 169 167
4 168 170 171 169
4 170 172 173 171
4 172 174 175 173
4 174 16 19 175
4 176 177 178 179
4 179 178 180 181
4 181 180 182 183
4 183 182 184 185
4 185 184 186 187
4 187 186 188 189
4 189 188 190 191
4 191 190 192 193
4 193 192 194 195
4 195 194 157 156
4 177 196 197 178
4 178 197 198 180
4 180 198 199 182
4 182 199 200 184
4 184 200 201 186
4 186 201 202 188
4 188 202 203 190
4 190 203 204 192
4 192 204 205 194
4 194 205 160 157
4 196 206 207 197
4 197 207 208 198
4 198 208 209 199
4 199 209 210 200
4 200 210 211 201
4 201 211 212 202
4 202 212 213 203
4 203 213 214 204
4 204 214 215 205
4 205 215 162 160
4 206 216 217 207
4 207 217 218 208
4 208 218 219 209
4 209 219 220 210
4 210 220 221 211
4 211 221 222 212
4 212 222 223 213
4 213 223 224 214
4 214 224 225 215
4 215 225 164 162
4 216 226 227 217
4 217 227 228 218
4 218 228 229 219
4 219 229 230 220
4 220 230 231 221
4 221 231 232 222
4 222 232 233 223
4 223 233 234 224
4 224 234 235 225
4 225 235 166 164
4 226 236 237 227
4 227 237 238 228
4 228 238 239 229
4 229 239 240 230
4 230 240 241 231
4 231 241 242 232
4 232 242 243 233
4 233 243 244 234
4 234 244 245 235
4 235 245 168 166
4 236 246 247 237
4 237 247 248 238
4 238 248 249 239
4 239 249 250 240
4 240 250 251 241
4 241 251 252 242
4 242 252 253 243
4 243 253 254 244
4 244 254 255 245
4 245 255 170 168
4 246 256 257 247
4 247 257 258 248
4 248 258 259 249
4 249 259 260 250
4 250 260 261 251
4 251 261 262 252
4 252 262 263 253
4 253 263 264 254
4 254 264 265 255
4 255 265 172 170
4 256 266 267 257
4 257 267 268 258
4 258 268 269 259
4 259 269 270 260
4 260 270 271 261
4 261 271 272 262
4 262 272 273 263
4 263 273 274 264
4 264 274 275 265
4 265 275 174 172
4 266 276 277 267
4 267 277 278 268
4 268 278 279 269
4 269 279 280 270
4 270 280 281 271
4 271 281 282 272
4 272 282 283 273
4 273 283 284 274
4 274 284 285 275
4 275 285 16 174
4 276 286 287 277
4 277 287 288 278
4 278 288 289 279
4 279 289 290 280
4 280 290 291 281
4 281 291 292 282
4 282 292 293 283
4 283 293 294 284
4 284 294 295 285
4 285 295 17 16
4 158 296 297 159
4 296 298 299 297
4 298 300 301 299
4 300 302 303 301
4 302 304 305 303
4 304 306 307 305
4 306 308 309 307
4 308 310 311 309
4 310 312 313 311
4 312 12 15 313
4 18 314 315 19
4 19 315 316 175
4 175 316 317 173
4 173 317 318 171
4 171 318 319 169
4 169 319 320 167
4 167 320 321 165
4 165 321 322 163
4 163 322 323 161
4 161 323 296 158
4 314 324 325 315
4 315 325 326 316
4 316 326 327 317
4 317 327 328 318
4 318 328 329 319
4 319 329 330 320
4 320 330 331 321
4 321 331 332 322
4 322 332 333 323
4 323 333 298 296
4 324 334 335 325
4 325 335 336 326
4 326 336 337 327
4 327 337 338 328
4 328 338 339 329
4 329 339 340 330
4 330 340 341 331
4 331 341 342 332
4 332 342 343 333
4 333 343 300 298
4 334 344 345 335
4 335 345 346 336
4 336 346 347 337
4 337 347 348 338
4 338 348 349 339
4 339 349 350 340
4 340 350 351 341
4 341 351 352 342
4 342 352 353 343
4 343 353 302 300
4 344 354 355 345
4 345 355 356 346
4 346 356 357 347
4 347 357 358 348
4 348 358 359 349
4 349 359 360 350
4 350 360 361 351
4 351 361 362 352
4 352 362 363 353
4 353 363 304 302
4 354 364 365 355
4 355 365 366 356
4 356 366 367 357
4 357 367 368 358
4 358 368 369 359
4 359 369 370 360
4 360 370 371 361
4 361 371 372 362
4 362 372 373 363
4 363 373 306 304
4 364 374 375 365
4 365 375 376 366
4 366 376 377 367
4 367 377 378 368
4 368 378 379 369
4 369 379 380 370
4 370 380 381 371
4 371 381 382 372
4 372 382 383 373
4 373 383 308 306
4 374 384 385 375
4 375 385 386 376
4 376 386 387 377
4 377 387 388 378
4 378 388 389 379
4 379 389 390 380
4 380 390 391 381
4 381 391 392 382
4 382 392 393 383
4 383 393 310 308
4 384 394 395 385
4 385 395 396 386
4 386 396 397 387
4 387 397 398 388
4 388 398 399 389
4 389 399 400 390
4 390 400 401 391
4 391 401 402 392
4 392 402 403 393
4 393 403 312 310
4 394 11 404 395
4 395 404 405 396
4 396 405 406 397
4 397 406 407 398
4 398 407 408 399
4 399 408 409 400
4 400 409 410 401
4 401 410 411 402
4 402 411 412 403
4 403 412 12 312
4 11 10 23 404
4 404 23 25 405
4 405 25 27 406
4 406 27 29 407
4 407 29 31 408
4 408 31 33 409
4 409 33 35 410
4 410 35 37 411
4 411 37 39 412
4 412 39 13 12
4 17 413 314 18
4 413 414 324 314
4 414 415 334 324
4 415 416 344 334
4 416 417 354 344
4 417 418 364 354
4 418 419 374 364
4 419 420 384 374
4 420 421 394 384
4 421 8 11 394
4 286 422 423 287
4 287 423 424 288
4 288 424 425 289
4 289 425 426 290
4 290 426 427 291
4 291 427 428 292
4 292 428 429 293
4 293 429 430 294
4 294 430 431 295
4 295 431 413 17
4 422 432 433 423
4 423 433 434 424
4 424 434 435 425
4 425 435 436 426
4 426 436 437 427
4 427 437 438 428
4 428 438 439 429
4 429 439 440 430
4 430 440 441 431
4 431 441 414 413
4 432 442 443 433
4 433 443 444 434
4 434 444 445 435
4 435 445 446 436
4 436 446 447 437
4 437 447 448 438
4 438 448 449 439
4 439 449 450 440
4 440 450 451 441
4 441 451 415 414
4 442 452 453 443
4 443 453 454 444
4 444 454 455 445
4 445 455 456 446
4 446 456 457 447
4 447 457 458 448
4 448 458 459 449
4 449 459 460 450
4 450 460 461 451
4 451 461 416 415
4 452 462 463 453
4 453 463 464 454
4 454 464 465 455
4 455 465 466 456
4 456 466 467 457
4 457 467 468 458
4 458 468 469 459
4 459 469 470 460
4 460 470 471 461
4 461 471 417 416
4 462 472 473 463
4 463 473 474 464
4 464 474 475 465
4 465 475 476 466
4 466 476 477 467
4 467 477 478 468
4 468 478 479 469
4 469 479 480 470
4 470 480 481 471
4 471 481 418 417
4 472 482 483 473
4 473 483 484 474
4 474 484 485 475
4 475 485 486 476
4 476 486 487 477
4 477 487 488 478
4 478 488 489 479
4 479 489 490 480
4 480 490 491 481
4 481 491 419 418
4 482 492 493 483
4 483 493 494 484
4 484 494 495 485
4 485 495 496 486
4 486 496 497 487
4 487 497 498 488
4 488 498 499 489
4 489 499 500 490
4 490 500 501 491
4 491 501 420 419
4 492 502 503 493
4 493 503 504 494
4 494 504 505 495
4 495 505 506 496
4 496 506 507 497
4 497 507 508 498
4 498 508 509 499
4 499 509 510 500
4 500 510 511 501
4 501 511 421 420
4 502 7 512 503
4 503 512 513 504
4 504 513 514 505
4 505 514 515 506
4 506 515 516 507
4 507 516 517 508
4 508 517 518 509
4 509 518 519 510
4 510 519 520 511
4 511 520 8 421
4 7 6 41 512
4 512 41 43 513
4 513 43 45 514
4 514 45 47 515
4 515 47 49 516
4 516 49 51 517
4 517 51 53 518
4 518 53 55 519
4 519 55 57 520
4 520 57 9 8
4 276 521 422 286
4 521 522 432 422
4 522 523 442 432
4 523 524 452 442
4 524 525 462 452
4 525 526 472 462
4 526 527 482 472
4 527 528 492 482
4 528 529 502 492
4 529 4 7 502
4 176 530 531 177
4 177 531 532 196
4 196 532 533 206
4 206 533 534 216
4 216 534 535 226
4 226 535 536 236
4 236 536 537 246
4 246 537 538 256
4 256 538 539 266
4 266 539 521 276
4 530 540 541 531
4 531 541 542 532
4 532 542 543 533
4 533 543 544 534
4 534 544 545 535
4 535 545 546 536
4 536 546 547 537
4 537 547 548 538
4 538 548 549 539
4 539 549 522 521
4 540 550 551 541
4 541 551 552 542
4 542 552 553 543
4 543 553 554 544
4 544 554 555 545
4 545 555 556 546
4 546 556 557 547
4 547 557 558 548
4 548 558 559 549
4 549 559 523 522
4 550 560 561 551
4 551 561 562 552
4 552 562 563 553
4 553 563 564 554
4 554 564 565 555
4 555 565 566 556
4 556 566 567 557
4 557 567 568 558
4 558 568 569 559
4 559 569 524 523
4 560 570 571 561
4 561 571 572 562
4 562 572 573 563
4 563 573 574 564
4 564 574 575 565
4 565 575 576 566
4 566 576 577 567
4 567 577 578 568
4 568 578 579 569
4 569 579 525 524
4 570 580 581 571
4 571 581 582 572
4 572 582 583 573
4 573 583 584 574
4 574 584 585 575
4 575 585 586 576
4 576 586 587 577
4 577 587 588 578
4 578 588 589 579
4 579 589 526 525
4 580 590 591 581
4 581 591 592 582
4 582 592 593 583
4 583 593 594 584
4 584 594 595 585
4 585 595 596 586
4 586 596 597 587
4 587 597 598 588
4 588 598 599 589
4 589 599 527 526
4 590 600 601 591
4 591 601 602 592
4 592 602 603 593
4 593 603 604 594
4 594 604 605 595
4 595 605 606 596
4 596 606 607 597
4 597 607 608 598
4 598 608 609 599
4 599 609 528 527
4 600 610 611 601
4 601 611 612 602
4 602 612 613 603
4 603 613 614 604
4 604 614 615 605
4 605 615 616 606
4 606 616 617 607
4 607 617 618 608
4 608 618 619 609
4 609 619 529 528
4 610 3 620 611
4 611 620 621 612
4 612 621 622 613
4 613 622 623 614
4 614 623 624 615
4 615 624 625 616
4 616 625 626 617
4 617 626 627 618
4 618 627 628 619
4 619 628 4 529
4 3 2 138 620
4 620 138 128 621
4 621 128 118 622
4 622 118 108 623
4 623 108 98 624
4 624 98 88 625
4 625 88 78 626
4 626 78 68 627
4 627 68 58 628
4 628 58 5 4
4 179 629 530 176
4 629 630 540 530
4 630 631 550 540
4 631 632 560 550
4 632 633 570 560
4 633 634 580 570
4 634 635 590 580
4 635 636 600 590
4 636 637 610 600
4 637 0 3 610
4 159 297 638 156
4 156 638 639 195
4 195 639 640 193
4 193 640 641 191
4 191 641 642 189
4 189 642 643 187
4 187 643 644 185
4 185 644 645 183
4 183 645 646 181
4 181 646 629 179
4 297 299 647 638
4 638 647 648 639
4 639 648 649 640
4 640 649 650 641
4 641 650 651 642
4 642 651 652 643
4 643 652 653 644
4 644 653 654 645
4 645 654 655 646
4 646 655 630 629
4 299 301 656 647
4 647 656 657 648
4 648 657 658 649
4 649 658 659 650
4 650 659 660 651
4 651 660 661 652
4 652 661 662 653
4 653 662 663 654
4 654 663 664 655
4 655 664 631 630
4 301 303 665 656
4 656 665 666 657
4 657 666 667 658
4 658 667 668 659
4 659 668 669 660
4 660 669 670 661
4 661 670 671 662
4 662 671 672 663
4 663 672 673 664
4 664 673 632 631
4 303 305 674 665
4 665 674 675 666
4 666 675 676 667
4 667 676 677 668
4 668 677 678 669
4 669 678 679 670
4 670 679 680 671
4 671 680 681 672
4 672 681 682 673
4 673 682 633 632
4 305 307 683 674
4 674 683 684 675
4 675 684 685 676
4 676 685 686 677
4 677 686 687 678
4 678 687 688 679
4 679 688 689 680
4 680 689 690 681
4 681 690 691 682
4 682 691 634 633
4 307 309 692 683
4 683 692 693 684
4 684 693 694 685
4 685 694 695 686
4 686 695 696 687
4 687 696 697 688
4 688 697 698 689
4 689 698 699 690
4 690 699 700 691
4 691 700 635 634
4 309 311 701 692
4 692 701 702 693
4 693 702 703 694
4 694 703 704 695
4 695 704 705 696
4 696 705 706 697
4 697 706 707 698
4 698 707 708 699
4 699 708 709 700
4 700 709 636 635
4 311 313 710 701
4 701 710 711 702
4 702 711 712 703
4 703 712 713 704
4 704 713 714 705
4 705 714 715 706
4 706 715 716 707
4 707 716 717 708
4 708 717 718 709
4 709 718 637 636
4 313 15 719 710
4 710 719 720 711
4 711 720 721 712
4 712 721 722 713
4 713 722 723 714
4 714 723 724 715
4 715 724 725 716
4 716 725 726 717
4 717 726 727 718
4 718 727 0 637
4 15 14 21 719
4 719 21 155 720
4 720 155 154 721
4 721 154 153 722
4 722 153 152 723
4 723 152 151 724
4 724 151 150 725
4 725 150 149 726
4 726 149 148 727
4 727 148 1 0
